<?xml version="1.0" encoding="UTF-8" standalone="no"?>
<!-- Created with Inkscape (http://www.inkscape.org/) -->

<svg
   width="140.17625mm"
   height="140.17625mm"
   viewBox="0 0 140.17625 140.17625"
   version="1.1"
   id="svg1"
   sodipodi:docname="instagram.svg"
   inkscape:version="1.1.2 (0a00cf5339, 2022-02-04)"
   xmlns:inkscape="http://www.inkscape.org/namespaces/inkscape"
   xmlns:sodipodi="http://sodipodi.sourceforge.net/DTD/sodipodi-0.dtd"
   xmlns="http://www.w3.org/2000/svg"
   xmlns:svg="http://www.w3.org/2000/svg">
  <sodipodi:namedview
     id="namedview9"
     pagecolor="#ffffff"
     bordercolor="#666666"
     borderopacity="1.0"
     inkscape:pageshadow="2"
     inkscape:pageopacity="0.0"
     inkscape:pagecheckerboard="0"
     inkscape:document-units="mm"
     showgrid="false"
     inkscape:zoom="1.5647414"
     inkscape:cx="264.58047"
     inkscape:cy="264.58047"
     inkscape:window-width="2560"
     inkscape:window-height="1356"
     inkscape:window-x="0"
     inkscape:window-y="0"
     inkscape:window-maximized="1"
     inkscape:current-layer="svg1" />
  <defs
     id="defs1" />
  <g
     id="layer1"
     transform="translate(-34.66045,-78.316599)">
    <path
       id="path25"
       d="m 174.83671,148.40649 c 0,38.70678 -31.37959,70.08637 -70.08637,70.08637 v 0 c -38.710305,0 -70.08989,-31.37959 -70.08989,-70.08637 v 0 c 0,-38.71031 31.379585,-70.089891 70.08989,-70.089891 v 0 c 38.70678,0 70.08637,31.379581 70.08637,70.089891 v 0"
       style="fill:#e5989b;fill-opacity:1;fill-rule:nonzero;stroke:none;stroke-width:0.0352778" />
    <path
       id="path26"
       d="m 135.1739,166.15122 c 0,6.99911 -5.67972,12.67883 -12.67531,12.67883 H 87.002092 c -6.999112,0 -12.678834,-5.67972 -12.678834,-12.67883 v -35.49298 c 0,-6.99911 5.679722,-12.67883 12.678834,-12.67883 h 35.496498 c 6.99559,0 12.67531,5.67972 12.67531,12.67883 z M 123.76507,111.63999 H 85.732092 c -9.79664,0 -17.748251,7.94808 -17.748251,17.74825 v 38.03298 c 0,9.80016 7.951611,17.74825 17.748251,17.74825 h 38.032978 c 9.80016,0 17.74825,-7.94809 17.74825,-17.74825 v -38.03298 c 0,-9.80017 -7.94809,-17.74825 -17.74825,-17.74825"
       style="fill:#6d6875;fill-opacity:1;fill-rule:nonzero;stroke:none;stroke-width:0.0352778" />
    <path
       id="path27"
       d="m 104.78562,161.0818 c -6.985,0 -12.678833,-5.69031 -12.678833,-12.67884 0,-6.985 5.693833,-12.6753 12.678833,-12.6753 6.985,0 12.67884,5.6903 12.67884,12.6753 0,6.98853 -5.69384,12.67884 -12.67884,12.67884 z m 0,-31.69356 c -10.498666,0 -19.014723,8.51958 -19.014723,19.01472 0,10.49867 8.516057,19.01826 19.014723,19.01826 10.49514,0 19.01472,-8.51959 19.01472,-19.01826 0,-10.49514 -8.51958,-19.01472 -19.01472,-19.01472"
       style="fill:#6d6875;fill-opacity:1;fill-rule:nonzero;stroke:none;stroke-width:0.0352778" />
    <path
       id="path28"
       d="m 125.07034,131.92471 c -2.09902,0 -3.80294,-1.70744 -3.80294,-3.80294 0,-2.09903 1.70392,-3.80295 3.80294,-3.80295 2.0955,0 3.80295,1.70392 3.80295,3.80295 0,2.0955 -1.70745,3.80294 -3.80295,3.80294"
       style="fill:#6d6875;fill-opacity:1;fill-rule:nonzero;stroke:none;stroke-width:0.0352778" />
  </g>
</svg>
