<?xml version="1.0" encoding="UTF-8" standalone="no"?>
<!-- Created with Inkscape (http://www.inkscape.org/) -->

<svg
   width="140.17625mm"
   height="140.17625mm"
   viewBox="0 0 140.17625 140.17625"
   version="1.1"
   id="svg1"
   sodipodi:docname="whatsapp.svg"
   inkscape:version="1.1.2 (0a00cf5339, 2022-02-04)"
   xmlns:inkscape="http://www.inkscape.org/namespaces/inkscape"
   xmlns:sodipodi="http://sodipodi.sourceforge.net/DTD/sodipodi-0.dtd"
   xmlns="http://www.w3.org/2000/svg"
   xmlns:svg="http://www.w3.org/2000/svg">
  <sodipodi:namedview
     id="namedview8"
     pagecolor="#ffffff"
     bordercolor="#666666"
     borderopacity="1.0"
     inkscape:pageshadow="2"
     inkscape:pageopacity="0.0"
     inkscape:pagecheckerboard="0"
     inkscape:document-units="mm"
     showgrid="false"
     inkscape:zoom="1.5647414"
     inkscape:cx="264.58047"
     inkscape:cy="264.58047"
     inkscape:window-width="2560"
     inkscape:window-height="1356"
     inkscape:window-x="0"
     inkscape:window-y="0"
     inkscape:window-maximized="1"
     inkscape:current-layer="svg1" />
  <defs
     id="defs1" />
  <g
     id="layer1"
     transform="translate(-34.66045,-78.316633)">
    <path
       id="path16"
       d="m 174.83671,148.403 c 0,38.71031 -31.37959,70.08989 -70.08637,70.08989 v 0 c -38.710305,0 -70.08989,-31.37958 -70.08989,-70.08989 v 0 c 0,-38.70678 31.379585,-70.086367 70.08989,-70.086367 v 0 c 38.70678,0 70.08637,31.379587 70.08637,70.086367 v 0"
       style="fill:#e5989b;fill-opacity:1;fill-rule:nonzero;stroke:none;stroke-width:0.0352778" />
    <path
       id="path17"
       d="m 105.89687,178.9465 c -6.124222,0 -11.856861,-1.65453 -16.792222,-4.54025 -0.465667,-0.26106 -0.913695,-0.53975 -1.351139,-0.82903 l -13.454946,3.58422 3.584223,-13.45494 c -3.39725,-5.22464 -5.369278,-11.45117 -5.369278,-18.14336 0,-18.40442 14.978945,-33.38337 33.383362,-33.38337 18.40442,0 33.38689,14.97895 33.38689,33.38337 0,18.40441 -14.98247,33.38336 -33.38689,33.38336 z m -1.40053,-75.45212 c -21.664082,0.70203 -39.553444,18.24567 -40.636472,39.89212 -0.391583,7.80344 1.329973,15.18003 4.677834,21.58294 l -4.702528,21.06084 c -0.201083,0.9525 0.642055,1.79564 1.594556,1.59808 l 21.060834,-4.70253 h 0.01411 c 6.360584,3.32317 13.659556,5.04473 21.406556,4.68489 21.61117,-1.00189 39.21125,-18.75719 40.04734,-40.37542 0.94544,-24.4863 -19.0112,-44.53467 -43.46223,-43.74092"
       style="fill:#6d6875;fill-opacity:1;fill-rule:nonzero;stroke:none;stroke-width:0.0352778" />
    <path
       id="path18"
       d="m 125.69476,160.25986 c -0.58208,0.87136 -1.19239,1.68628 -2.16605,2.66347 -2.14137,2.13784 -5.10823,3.21734 -8.12095,2.91042 -5.40103,-0.55386 -13.07042,-3.53836 -19.660306,-10.11414 -6.593417,-6.59342 -9.577918,-14.26281 -10.11414,-19.66031 -0.306917,-3.01272 0.769056,-5.98311 2.910417,-8.12094 0.973667,-0.97367 1.788583,-1.5875 2.663472,-2.1837 1.615723,-1.09008 3.810001,-0.36336 4.423834,1.47109 l 2.211917,6.63575 c 0.610305,1.82033 0.335139,2.96686 -0.451556,3.73944 l -1.763889,1.778 c -0.871361,0.87136 -1.016,2.22603 -0.34925,3.27378 0.977195,1.52753 2.811639,3.97228 6.187721,7.34836 3.37609,3.37609 5.82084,5.21053 7.34836,6.1842 1.04775,0.67027 2.40242,0.52564 3.27378,-0.34925 l 1.778,-1.76036 c 0.76906,-0.7867 1.91911,-1.06187 3.73945,-0.45156 l 6.63575,2.21192 c 1.83444,0.6103 2.56116,2.80811 1.45344,4.42383"
       style="fill:#6d6875;fill-opacity:1;fill-rule:nonzero;stroke:none;stroke-width:0.0352778" />
  </g>
</svg>
