<?xml version="1.0" encoding="UTF-8" standalone="no"?>
<!-- Created with Inkscape (http://www.inkscape.org/) -->

<svg
   width="140.17696mm"
   height="140.17978mm"
   viewBox="0 0 140.17696 140.17978"
   version="1.1"
   id="svg1132"
   inkscape:version="1.1.2 (0a00cf5339, 2022-02-04)"
   sodipodi:docname="pinterest.svg"
   xmlns:inkscape="http://www.inkscape.org/namespaces/inkscape"
   xmlns:sodipodi="http://sodipodi.sourceforge.net/DTD/sodipodi-0.dtd"
   xmlns="http://www.w3.org/2000/svg"
   xmlns:svg="http://www.w3.org/2000/svg">
  <sodipodi:namedview
     id="namedview1134"
     pagecolor="#ffffff"
     bordercolor="#666666"
     borderopacity="1.0"
     inkscape:pageshadow="2"
     inkscape:pageopacity="0.0"
     inkscape:pagecheckerboard="0"
     inkscape:document-units="mm"
     showgrid="false"
     inkscape:zoom="0.66635802"
     inkscape:cx="340.65771"
     inkscape:cy="261.12089"
     inkscape:window-width="2560"
     inkscape:window-height="1356"
     inkscape:window-x="0"
     inkscape:window-y="0"
     inkscape:window-maximized="1"
     inkscape:current-layer="layer1" />
  <defs
     id="defs1129" />
  <g
     inkscape:label="Layer 1"
     inkscape:groupmode="layer"
     id="layer1"
     transform="translate(-14.882108,-79.601287)">
    <path
       d="m 155.05907,149.69118 c 0,38.71031 -31.37888,70.08989 -70.087774,70.08989 h -3.53e-4 c -38.708897,0 -70.088835,-31.37958 -70.088835,-70.08989 v 0 c 0,-38.71031 31.379938,-70.089893 70.088835,-70.089893 h 3.53e-4 c 38.708894,0 70.087774,31.379583 70.087774,70.089893 v 0"
       style="fill:#6d6875;fill-opacity:1;fill-rule:nonzero;stroke:none;stroke-width:0.0352778"
       id="path30" />
    <path
       d="m 68.156848,192.81827 c 1.364897,-1.27706 7.058378,-7.16845 10.057695,-19.38162 l 2.263069,-9.28511 c 2.119136,2.21192 5.064831,3.683 8.172098,4.43795 12.5543,3.09033 24.71314,-10.32934 27.87438,-23.22337 4.43619,-18.05164 -4.77731,-33.97955 -20.043771,-37.71547 -17.583151,-4.31095 -38.327544,4.27214 -43.392375,24.90964 -1.778,7.25664 -1.185334,18.23156 8.657167,23.4562 1.005769,0.53975 2.244725,-0.0176 2.514247,-1.13242 l 1.382889,-5.58447 c 0.143934,-0.64559 -0.107597,-1.31234 -0.610658,-1.76036 -3.502025,-3.17853 -4.310239,-8.36789 -3.124906,-13.23623 3.430412,-13.95589 17.780707,-19.685 29.993874,-16.68639 10.596383,2.6035 17.044103,13.41614 14.044793,25.62931 -2.13713,8.73125 -8.18974,18.33739 -16.918521,16.19956 -5.226403,-1.27353 -5.819422,-6.39234 -4.40055,-12.17437 l 3.197225,-13.07747 c 0.826206,-3.37608 -1.239308,-6.78744 -4.598106,-7.61294 -3.376436,-0.8255 -8.710789,1.5628 -10.416822,8.5478 -1.00577,4.07811 -0.179564,7.34484 1.364897,9.50031 l -6.429728,26.23961 c -2.963334,12.0897 -0.718609,19.9002 -0.05398,21.76992"
       style="fill:#e5989b;fill-opacity:1;fill-rule:nonzero;stroke:none;stroke-width:0.0352778"
       id="path32" />
  </g>
</svg>
