<?xml version="1.0" encoding="UTF-8" standalone="no"?>
<!-- Created with Inkscape (http://www.inkscape.org/) -->

<svg
   width="140.17696mm"
   height="140.17625mm"
   viewBox="0 0 140.17696 140.17625"
   version="1.1"
   id="svg986"
   inkscape:version="1.1.2 (0a00cf5339, 2022-02-04)"
   sodipodi:docname="tiktok.svg"
   xmlns:inkscape="http://www.inkscape.org/namespaces/inkscape"
   xmlns:sodipodi="http://sodipodi.sourceforge.net/DTD/sodipodi-0.dtd"
   xmlns="http://www.w3.org/2000/svg"
   xmlns:svg="http://www.w3.org/2000/svg">
  <sodipodi:namedview
     id="namedview988"
     pagecolor="#ffffff"
     bordercolor="#666666"
     borderopacity="1.0"
     inkscape:pageshadow="2"
     inkscape:pageopacity="0.0"
     inkscape:pagecheckerboard="0"
     inkscape:document-units="mm"
     showgrid="false"
     inkscape:zoom="0.66635802"
     inkscape:cx="249.11533"
     inkscape:cy="6.0027791"
     inkscape:window-width="2560"
     inkscape:window-height="1356"
     inkscape:window-x="0"
     inkscape:window-y="0"
     inkscape:window-maximized="1"
     inkscape:current-layer="layer1" />
  <defs
     id="defs983" />
  <g
     inkscape:label="Layer 1"
     inkscape:groupmode="layer"
     id="layer1"
     transform="translate(-39.102698,-147.10304)">
    <path
       d="m 179.27966,217.18941 c 0,38.71031 -31.37888,70.08989 -70.08777,70.08989 h -3.6e-4 c -38.708894,0 -70.088832,-31.37958 -70.088832,-70.08989 v 0 c 0,-38.70678 31.379938,-70.08637 70.088832,-70.08637 h 3.6e-4 c 38.70889,0 70.08777,31.37959 70.08777,70.08637 v 0"
       style="fill:#6d6875;fill-opacity:1;fill-rule:nonzero;stroke:none;stroke-width:0.0352778"
       id="path50" />
    <path
       d="m 123.08322,235.2481 v -34.72744 c 0,0 3.91513,6.52639 18.07033,6.92503 0.7546,0.0247 1.37795,-0.5962 1.37795,-1.35114 v -9.81781 c 0,-0.73025 -0.58278,-1.30881 -1.31303,-1.35114 -10.9788,-0.62089 -16.19286,-9.03817 -16.70439,-16.76047 -0.0473,-0.71614 -0.67204,-1.25942 -1.39029,-1.25942 h -11.19223 c -0.74613,0 -1.35079,0.60325 -1.35079,1.35114 v 55.2062 c 0,5.99722 -4.58258,11.2148 -10.5731,11.49703 -6.847771,0.32455 -12.414605,-5.55273 -11.567938,-12.49539 0.597958,-4.90714 4.536017,-8.92528 9.431514,-9.60614 0.972256,-0.13406 1.924403,-0.14464 2.843034,-0.0423 0.81351,0.0917 1.53141,-0.51505 1.53141,-1.3335 v -9.83897 c 0,-0.70203 -0.53234,-1.30528 -1.23119,-1.34761 -1.404765,-0.0917 -2.843393,-0.06 -4.304598,0.10583 -10.798529,1.22414 -19.51214,9.96245 -20.70841,20.76098 -1.578328,14.25222 9.535231,26.31369 23.466074,26.31369 13.042544,0 23.615654,-10.57275 23.615654,-23.61494"
       style="fill:#e5989b;fill-opacity:1;fill-rule:nonzero;stroke:none;stroke-width:0.0352778"
       id="path52" />
  </g>
</svg>
