<?xml version="1.0" encoding="UTF-8" standalone="no"?>
<!-- Created with Inkscape (http://www.inkscape.org/) -->

<svg
   width="140.17978mm"
   height="140.17625mm"
   viewBox="0 0 140.17978 140.17625"
   version="1.1"
   id="svg1"
   sodipodi:docname="youtube.svg"
   inkscape:version="1.1.2 (0a00cf5339, 2022-02-04)"
   xmlns:inkscape="http://www.inkscape.org/namespaces/inkscape"
   xmlns:sodipodi="http://sodipodi.sourceforge.net/DTD/sodipodi-0.dtd"
   xmlns="http://www.w3.org/2000/svg"
   xmlns:svg="http://www.w3.org/2000/svg">
  <sodipodi:namedview
     id="namedview7"
     pagecolor="#ffffff"
     bordercolor="#666666"
     borderopacity="1.0"
     inkscape:pageshadow="2"
     inkscape:pageopacity="0.0"
     inkscape:pagecheckerboard="0"
     inkscape:document-units="mm"
     showgrid="false"
     inkscape:zoom="1.5647414"
     inkscape:cx="265.21955"
     inkscape:cy="264.58047"
     inkscape:window-width="2560"
     inkscape:window-height="1356"
     inkscape:window-x="0"
     inkscape:window-y="0"
     inkscape:window-maximized="1"
     inkscape:current-layer="svg1" />
  <defs
     id="defs1" />
  <g
     id="layer1"
     transform="translate(-34.433324,-54.530191)">
    <path
       id="path29"
       d="m 174.61311,124.62008 c 0,38.70678 -31.37958,70.08637 -70.08989,70.08637 v 0 c -38.710311,0 -70.089896,-31.37959 -70.089896,-70.08637 v 0 c 0,-38.710304 31.379585,-70.089889 70.089896,-70.089889 v 0 c 38.71031,0 70.08989,31.379585 70.08989,70.089889 v 0"
       style="fill:#6d6875;fill-opacity:1;fill-rule:nonzero;stroke:none;stroke-width:0.0352778" />
    <path
       id="path30"
       d="m 114.22814,127.22711 -16.799284,8.39259 c -1.93675,0.97014 -4.219223,-0.43745 -4.219223,-2.6035 v -16.79223 c 0,-2.16605 2.282473,-3.57364 4.219223,-2.60703 l 16.799284,8.39612 c 2.14489,1.07244 2.14489,4.13808 0,5.21405 z M 134.72805,94.919721 H 74.318382 c -5.969,0 -10.805584,4.840111 -10.805584,10.805589 v 37.78603 c 0,5.969 4.836584,10.80558 10.805584,10.80558 h 60.409668 c 5.969,0 10.80559,-4.83658 10.80559,-10.80558 v -37.78603 c 0,-5.965478 -4.83659,-10.805589 -10.80559,-10.805589"
       style="fill:#e5989b;fill-opacity:1;fill-rule:nonzero;stroke:none;stroke-width:0.0352778" />
  </g>
</svg>
